<?xml version="1.0" encoding="UTF-8"?>
<svg id="Calque_2" data-name="Calque 2" xmlns="http://www.w3.org/2000/svg" xmlns:xlink="http://www.w3.org/1999/xlink" viewBox="0 0 1654.69 1082.18">
  <defs>
    <style>
      .cls-1 {
        fill: #1e566c;
      }

      .cls-1, .cls-2, .cls-3, .cls-4, .cls-5, .cls-6, .cls-7, .cls-8, .cls-9, .cls-10, .cls-11, .cls-12, .cls-13, .cls-14, .cls-15, .cls-16, .cls-17, .cls-18, .cls-19, .cls-20, .cls-21, .cls-22, .cls-23, .cls-24, .cls-25, .cls-26, .cls-27, .cls-28, .cls-29, .cls-30, .cls-31, .cls-32, .cls-33, .cls-34, .cls-35, .cls-36, .cls-37, .cls-38, .cls-39, .cls-40, .cls-41, .cls-42, .cls-43, .cls-44, .cls-45, .cls-46, .cls-47, .cls-48, .cls-49, .cls-50, .cls-51, .cls-52, .cls-53, .cls-54, .cls-55, .cls-56, .cls-57, .cls-58, .cls-59, .cls-60, .cls-61, .cls-62, .cls-63, .cls-64, .cls-65, .cls-66, .cls-67, .cls-68, .cls-69, .cls-70, .cls-71, .cls-72, .cls-73, .cls-74, .cls-75, .cls-76, .cls-77, .cls-78, .cls-79, .cls-80, .cls-81, .cls-82, .cls-83, .cls-84, .cls-85, .cls-86, .cls-87, .cls-88, .cls-89, .cls-90, .cls-91, .cls-92, .cls-93, .cls-94, .cls-95, .cls-96, .cls-97, .cls-98, .cls-99, .cls-100, .cls-101, .cls-102, .cls-103, .cls-104, .cls-105, .cls-106, .cls-107, .cls-108, .cls-109, .cls-110, .cls-111, .cls-112, .cls-113, .cls-114, .cls-115, .cls-116, .cls-117, .cls-118, .cls-119, .cls-120, .cls-121, .cls-122, .cls-123, .cls-124, .cls-125, .cls-126, .cls-127, .cls-128, .cls-129, .cls-130, .cls-131, .cls-132, .cls-133, .cls-134, .cls-135, .cls-136, .cls-137, .cls-138, .cls-139, .cls-140, .cls-141, .cls-142, .cls-143, .cls-144, .cls-145, .cls-146, .cls-147, .cls-148, .cls-149, .cls-150, .cls-151, .cls-152, .cls-153 {
        stroke-width: 0px;
      }

      .cls-2 {
        fill: #215b72;
      }

      .cls-3 {
        fill: #256680;
      }

      .cls-4 {
        fill: #276a86;
      }

      .cls-5 {
        fill: #378eb4;
      }

      .cls-6 {
        fill: #2b718f;
      }

      .cls-7 {
        fill: #2b7491;
      }

      .cls-8 {
        fill: #164455;
      }

      .cls-9 {
        fill: #2e7999;
      }

      .cls-10 {
        fill: #2b728f;
      }

      .cls-11 {
        fill: #19495b;
      }

      .cls-12 {
        fill: #276985;
      }

      .cls-13 {
        fill: #3283a5;
      }

      .cls-14 {
        fill: #2d7796;
      }

      .cls-15 {
        fill: #1a4c5f;
      }

      .cls-16 {
        fill: #23617a;
      }

      .cls-17 {
        fill: #1d5368;
      }

      .cls-18 {
        fill: #276984;
      }

      .cls-19 {
        fill: #3589ac;
      }

      .cls-20 {
        fill: #225f77;
      }

      .cls-21 {
        fill: #368baf;
      }

      .cls-22 {
        fill: #307d9e;
      }

      .cls-23 {
        fill: #307e9f;
      }

      .cls-24 {
        fill: #25647e;
      }

      .cls-25 {
        fill: #388fb4;
      }

      .cls-26 {
        fill: #194a5d;
      }

      .cls-27 {
        fill: #2f7b9b;
      }

      .cls-28 {
        fill: #236078;
      }

      .cls-29 {
        fill: #1b4e61;
      }

      .cls-30 {
        fill: #174556;
      }

      .cls-31 {
        fill: #3487aa;
      }

      .cls-32 {
        fill: #184759;
      }

      .cls-33 {
        fill: #236179;
      }

      .cls-34 {
        fill: #3589ad;
      }

      .cls-35 {
        fill: #3588ac;
      }

      .cls-154 {
        fill: #062a33;
        stroke: #062a33;
        stroke-miterlimit: 10;
        stroke-width: 4px;
      }

      .cls-36 {
        fill: #266782;
      }

      .cls-37 {
        fill: #205a70;
      }

      .cls-38 {
        fill: #215c74;
      }

      .cls-39 {
        fill: #2e7a9a;
      }

      .cls-40 {
        fill: #1b4f62;
      }

      .cls-41 {
        fill: #2e7a99;
      }

      .cls-42 {
        fill: #3486a9;
      }

      .cls-43 {
        fill: #296f8b;
      }

      .cls-44 {
        fill: #143f4f;
      }

      .cls-45 {
        fill: #154151;
      }

      .cls-46 {
        fill: #266883;
      }

      .cls-47 {
        fill: #25657f;
      }

      .cls-48 {
        fill: #2f7d9d;
      }

      .cls-49 {
        fill: #3282a4;
      }

      .cls-50 {
        fill: #266882;
      }

      .cls-51 {
        fill: #174658;
      }

      .cls-52 {
        fill: #1c5165;
      }

      .cls-53 {
        fill: #2e7998;
      }

      .cls-54 {
        fill: #296e8a;
      }

      .cls-55 {
        fill: #317fa0;
      }

      .cls-56 {
        fill: #3992b8;
      }

      .cls-57 {
        fill: #1f586e;
      }

      .cls-58 {
        fill: #2d7694;
      }

      .cls-59 {
        fill: none;
      }

      .cls-60 {
        fill: #1e556a;
      }

      .cls-61 {
        fill: #1e566b;
      }

      .cls-62 {
        fill: #2a708c;
      }

      .cls-63 {
        fill: #2a718e;
      }

      .cls-64 {
        fill: #276a85;
      }

      .cls-65 {
        fill: #3282a3;
      }

      .cls-66 {
        fill: #286b86;
      }

      .cls-155 {
        clip-path: url(#clippath-1);
      }

      .cls-67 {
        fill: #24627c;
      }

      .cls-68 {
        fill: #296d8a;
      }

      .cls-69 {
        fill: #215d74;
      }

      .cls-70 {
        fill: #1a4d60;
      }

      .cls-71 {
        fill: #368cb0;
      }

      .cls-72 {
        fill: #286b87;
      }

      .cls-73 {
        fill: #256580;
      }

      .cls-74 {
        fill: #2c7593;
      }

      .cls-75 {
        fill: #1e5469;
      }

      .cls-76 {
        fill: #1c5166;
      }

      .cls-77 {
        fill: #164354;
      }

      .cls-78 {
        fill: #fff;
      }

      .cls-79 {
        fill: #205970;
      }

      .cls-80 {
        fill: #1e546a;
      }

      .cls-81 {
        fill: #1c5065;
      }

      .cls-82 {
        fill: #286c87;
      }

      .cls-83 {
        fill: #2b7390;
      }

      .cls-84 {
        fill: #1f566c;
      }

      .cls-85 {
        fill: #174657;
      }

      .cls-86 {
        fill: #1c5064;
      }

      .cls-87 {
        fill: #2f7b9a;
      }

      .cls-88 {
        fill: #378db2;
      }

      .cls-89 {
        fill: #2c7594;
      }

      .cls-90 {
        fill: #368cb1;
      }

      .cls-91 {
        fill: #296e8b;
      }

      .cls-92 {
        fill: #143e4e;
      }

      .cls-93 {
        fill: #3890b5;
      }

      .cls-94 {
        fill: #2b7290;
      }

      .cls-95 {
        fill: #1d5369;
      }

      .cls-96 {
        fill: #307f9f;
      }

      .cls-97 {
        fill: #3181a2;
      }

      .cls-98 {
        fill: #3385a7;
      }

      .cls-99 {
        fill: #1b4f63;
      }

      .cls-100 {
        fill: #3384a6;
      }

      .cls-101 {
        fill: #307d9d;
      }

      .cls-102 {
        fill: #1d5267;
      }

      .cls-103 {
        fill: #3891b6;
      }

      .cls-104 {
        fill: #1f576d;
      }

      .cls-156 {
        clip-path: url(#clippath);
      }

      .cls-105 {
        fill: #205a71;
      }

      .cls-106 {
        fill: #225e75;
      }

      .cls-107 {
        fill: #378eb3;
      }

      .cls-108 {
        fill: #307e9e;
      }

      .cls-109 {
        fill: #154152;
      }

      .cls-110 {
        fill: #3991b7;
      }

      .cls-111 {
        fill: #3385a8;
      }

      .cls-112 {
        fill: #1f586f;
      }

      .cls-113 {
        fill: #2c7492;
      }

      .cls-114 {
        fill: #3180a1;
      }

      .cls-115 {
        fill: #296f8c;
      }

      .cls-116 {
        fill: #276883;
      }

      .cls-117 {
        fill: #3890b6;
      }

      .cls-118 {
        fill: #18485a;
      }

      .cls-119 {
        fill: #3488ab;
      }

      .cls-120 {
        fill: #24647d;
      }

      .cls-121 {
        fill: #1c5266;
      }

      .cls-122 {
        fill: #3384a7;
      }

      .cls-123 {
        fill: #20596f;
      }

      .cls-124 {
        fill: #2e7897;
      }

      .cls-125 {
        fill: #1a4b5e;
      }

      .cls-126 {
        fill: #378cb1;
      }

      .cls-127 {
        fill: #1e556b;
      }

      .cls-128 {
        fill: #286c88;
      }

      .cls-129 {
        fill: #1f576e;
      }

      .cls-130 {
        fill: #296d89;
      }

      .cls-131 {
        fill: #236079;
      }

      .cls-132 {
        fill: #286d89;
      }

      .cls-133 {
        fill: #2a708d;
      }

      .cls-134 {
        fill: #24637c;
      }

      .cls-135 {
        fill: #2b7391;
      }

      .cls-136 {
        fill: #266681;
      }

      .cls-137 {
        fill: #225e76;
      }

      .cls-138 {
        fill: #2d7695;
      }

      .cls-139 {
        fill: #3281a3;
      }

      .cls-140 {
        fill: #266781;
      }

      .cls-141 {
        fill: #24637d;
      }

      .cls-142 {
        fill: #215c73;
      }

      .cls-143 {
        fill: #205b72;
      }

      .cls-144 {
        fill: #1b4e62;
      }

      .cls-145 {
        fill: #154050;
      }

      .cls-146 {
        fill: #194a5c;
      }

      .cls-147 {
        fill: #164253;
      }

      .cls-148 {
        fill: #225d75;
      }

      .cls-149 {
        fill: #358aae;
      }

      .cls-150 {
        fill: #24627b;
      }

      .cls-151 {
        fill: #2d7795;
      }

      .cls-152 {
        fill: #2f7c9c;
      }

      .cls-153 {
        fill: #2d7897;
      }
    </style>
    <clipPath id="clippath">
      <path class="cls-59" d="m399.23,226.56v594.03c0,19.35-15.69,35.03-35.03,35.03h-85.71v-508.32c0-66.69,54.06-120.75,120.75-120.75h0Z"/>
    </clipPath>
    <clipPath id="clippath-1">
      <path class="cls-59" d="m687.56,419.41l-.07.07-125.35,112.96-7.79-8.31c-17.81-19.47-27.85-45.07-27.85-71.69,0-9.25.09-17.15.73-24.21,0-.07,0-.14.02-.2.66-4.87,1.69-10.41,3.19-16.49,1.82-7.22,4.33-15.23,7.82-23.91,3.46-8.61,8.84-16.34,15.73-22.55h0s12.5-11.27,12.5-11.27l141.15-127.24c31.09,77.59,16.37,152.5-20.09,192.85Z"/>
    </clipPath>
  </defs>
  <g id="Calque_1-2" data-name="Calque 1">
    <g>
      <rect id="CADRE_BLANC" data-name="CADRE BLANC" class="cls-78" width="1654.69" height="1082.18"/>
      <g id="K">
        <g class="cls-156">
          <polygon class="cls-56" points="399.23 470.45 278.49 469.54 278.49 226.56 399.23 226.56 399.23 470.45"/>
          <polygon class="cls-56" points="399.23 474.56 278.49 473.65 278.49 469.54 399.23 470.45 399.23 474.56"/>
          <polygon class="cls-110" points="399.23 478.68 278.49 477.76 278.49 473.65 399.23 474.56 399.23 478.68"/>
          <polygon class="cls-117" points="399.23 482.79 278.49 481.88 278.49 477.76 399.23 478.68 399.23 482.79"/>
          <polygon class="cls-93" points="399.23 486.91 278.49 485.99 278.49 481.88 399.23 482.79 399.23 486.91"/>
          <polygon class="cls-25" points="399.23 491.02 278.49 490.11 278.49 485.99 399.23 486.91 399.23 491.02"/>
          <polygon class="cls-107" points="399.23 495.13 278.49 494.22 278.49 490.11 399.23 491.02 399.23 495.13"/>
          <polygon class="cls-88" points="399.23 499.25 278.49 498.34 278.49 494.22 399.23 495.13 399.23 499.25"/>
          <polygon class="cls-126" points="399.23 503.36 278.49 502.45 278.49 498.34 399.23 499.25 399.23 503.36"/>
          <polygon class="cls-71" points="399.23 507.48 278.49 506.56 278.49 502.45 399.23 503.36 399.23 507.48"/>
          <polygon class="cls-21" points="399.23 511.59 278.49 510.68 278.49 506.56 399.23 507.48 399.23 511.59"/>
          <polygon class="cls-149" points="399.23 515.71 278.49 514.79 278.49 510.68 399.23 511.59 399.23 515.71"/>
          <polygon class="cls-34" points="399.23 519.82 278.49 518.91 278.49 514.79 399.23 515.71 399.23 519.82"/>
          <polygon class="cls-35" points="399.23 523.93 278.49 523.02 278.49 518.91 399.23 519.82 399.23 523.93"/>
          <polygon class="cls-119" points="399.23 528.05 278.49 527.14 278.49 523.02 399.23 523.93 399.23 528.05"/>
          <polygon class="cls-31" points="399.23 532.16 278.49 531.25 278.49 527.14 399.23 528.05 399.23 532.16"/>
          <polygon class="cls-42" points="399.23 536.28 278.49 535.36 278.49 531.25 399.23 532.16 399.23 536.28"/>
          <polygon class="cls-111" points="399.23 540.39 278.49 539.48 278.49 535.36 399.23 536.28 399.23 540.39"/>
          <polygon class="cls-122" points="399.23 544.51 278.49 543.59 278.49 539.48 399.23 540.39 399.23 544.51"/>
          <polygon class="cls-100" points="399.23 548.62 278.49 547.71 278.49 543.59 399.23 544.51 399.23 548.62"/>
          <polygon class="cls-13" points="399.23 552.73 278.49 551.82 278.49 547.71 399.23 548.62 399.23 552.73"/>
          <polygon class="cls-49" points="399.23 556.85 278.49 555.94 278.49 551.82 399.23 552.73 399.23 556.85"/>
          <polygon class="cls-139" points="399.23 560.96 278.49 560.05 278.49 555.94 399.23 556.85 399.23 560.96"/>
          <polygon class="cls-97" points="399.23 565.08 278.49 564.16 278.49 560.05 399.23 560.96 399.23 565.08"/>
          <polygon class="cls-114" points="399.23 569.19 278.49 568.28 278.49 564.16 399.23 565.08 399.23 569.19"/>
          <polygon class="cls-55" points="399.23 573.31 278.49 572.39 278.49 568.28 399.23 569.19 399.23 573.31"/>
          <polygon class="cls-23" points="399.23 577.42 278.49 576.51 278.49 572.39 399.23 573.31 399.23 577.42"/>
          <polygon class="cls-22" points="399.23 581.53 278.49 580.62 278.49 576.51 399.23 577.42 399.23 581.53"/>
          <polygon class="cls-48" points="399.23 585.65 278.49 584.74 278.49 580.62 399.23 581.53 399.23 585.65"/>
          <polygon class="cls-152" points="399.23 589.76 278.49 588.85 278.49 584.74 399.23 585.65 399.23 589.76"/>
          <polygon class="cls-27" points="399.23 593.88 278.49 592.96 278.49 588.85 399.23 589.76 399.23 593.88"/>
          <polygon class="cls-39" points="399.23 597.99 278.49 597.08 278.49 592.96 399.23 593.88 399.23 597.99"/>
          <polygon class="cls-9" points="399.23 602.11 278.49 601.19 278.49 597.08 399.23 597.99 399.23 602.11"/>
          <polygon class="cls-53" points="399.23 606.22 278.49 605.31 278.49 601.19 399.23 602.11 399.23 606.22"/>
          <polygon class="cls-153" points="399.23 610.33 278.49 609.42 278.49 605.31 399.23 606.22 399.23 610.33"/>
          <polygon class="cls-14" points="399.23 614.45 278.49 613.54 278.49 609.42 399.23 610.33 399.23 614.45"/>
          <polygon class="cls-138" points="399.23 618.56 278.49 617.65 278.49 613.54 399.23 614.45 399.23 618.56"/>
          <polygon class="cls-89" points="399.23 622.68 278.49 621.76 278.49 617.65 399.23 618.56 399.23 622.68"/>
          <polygon class="cls-74" points="399.23 626.79 278.49 625.88 278.49 621.76 399.23 622.68 399.23 626.79"/>
          <polygon class="cls-113" points="399.23 630.91 278.49 629.99 278.49 625.88 399.23 626.79 399.23 630.91"/>
          <polygon class="cls-135" points="399.23 635.02 278.49 634.11 278.49 629.99 399.23 630.91 399.23 635.02"/>
          <polygon class="cls-94" points="399.23 639.13 278.49 638.22 278.49 634.11 399.23 635.02 399.23 639.13"/>
          <polygon class="cls-6" points="399.23 643.25 278.49 642.34 278.49 638.22 399.23 639.13 399.23 643.25"/>
          <polygon class="cls-63" points="399.23 647.36 278.49 646.45 278.49 642.34 399.23 643.25 399.23 647.36"/>
          <polygon class="cls-133" points="399.23 651.48 278.49 650.56 278.49 646.45 399.23 647.36 399.23 651.48"/>
          <polygon class="cls-115" points="399.23 655.59 278.49 654.68 278.49 650.56 399.23 651.48 399.23 655.59"/>
          <polygon class="cls-91" points="399.23 659.71 278.49 658.79 278.49 654.68 399.23 655.59 399.23 659.71"/>
          <polygon class="cls-68" points="399.23 663.82 278.49 662.91 278.49 658.79 399.23 659.71 399.23 663.82"/>
          <polygon class="cls-132" points="399.23 667.93 278.49 667.02 278.49 662.91 399.23 663.82 399.23 667.93"/>
          <polygon class="cls-128" points="399.23 672.05 278.49 671.14 278.49 667.02 399.23 667.93 399.23 672.05"/>
          <polygon class="cls-72" points="399.23 676.16 278.49 675.25 278.49 671.14 399.23 672.05 399.23 676.16"/>
          <polygon class="cls-4" points="399.23 680.28 278.49 679.36 278.49 675.25 399.23 676.16 399.23 680.28"/>
          <polygon class="cls-12" points="399.23 684.39 278.49 683.48 278.49 679.36 399.23 680.28 399.23 684.39"/>
          <polygon class="cls-18" points="399.23 688.51 278.49 687.59 278.49 683.48 399.23 684.39 399.23 688.51"/>
          <polygon class="cls-46" points="399.23 692.62 278.49 691.71 278.49 687.59 399.23 688.51 399.23 692.62"/>
          <polygon class="cls-36" points="399.23 696.73 278.49 695.82 278.49 691.71 399.23 692.62 399.23 696.73"/>
          <polygon class="cls-136" points="399.23 700.85 278.49 699.94 278.49 695.82 399.23 696.73 399.23 700.85"/>
          <polygon class="cls-73" points="399.23 704.96 278.49 704.05 278.49 699.94 399.23 700.85 399.23 704.96"/>
          <polygon class="cls-47" points="399.23 709.08 278.49 708.16 278.49 704.05 399.23 704.96 399.23 709.08"/>
          <polygon class="cls-24" points="399.23 713.19 278.49 712.28 278.49 708.16 399.23 709.08 399.23 713.19"/>
          <polygon class="cls-141" points="399.23 717.31 278.49 716.39 278.49 712.28 399.23 713.19 399.23 717.31"/>
          <polygon class="cls-67" points="399.23 721.42 278.49 720.51 278.49 716.39 399.23 717.31 399.23 721.42"/>
          <polygon class="cls-150" points="399.23 725.53 278.49 724.62 278.49 720.51 399.23 721.42 399.23 725.53"/>
          <polygon class="cls-33" points="399.23 729.65 278.49 728.74 278.49 724.62 399.23 725.53 399.23 729.65"/>
          <polygon class="cls-28" points="399.23 733.76 278.49 732.85 278.49 728.74 399.23 729.65 399.23 733.76"/>
          <polygon class="cls-20" points="399.23 737.88 278.49 736.97 278.49 732.85 399.23 733.76 399.23 737.88"/>
          <polygon class="cls-137" points="399.23 741.99 278.49 741.08 278.49 736.97 399.23 737.88 399.23 741.99"/>
          <polygon class="cls-106" points="399.23 746.11 278.49 745.19 278.49 741.08 399.23 741.99 399.23 746.11"/>
          <polygon class="cls-69" points="399.23 750.22 278.49 749.31 278.49 745.19 399.23 746.11 399.23 750.22"/>
          <polygon class="cls-142" points="399.23 754.33 278.49 753.42 278.49 749.31 399.23 750.22 399.23 754.33"/>
          <polygon class="cls-2" points="399.23 758.45 278.49 757.54 278.49 753.42 399.23 754.33 399.23 758.45"/>
          <polygon class="cls-105" points="399.23 762.56 278.49 761.65 278.49 757.54 399.23 758.45 399.23 762.56"/>
          <polygon class="cls-37" points="399.23 766.68 278.49 765.77 278.49 761.65 399.23 762.56 399.23 766.68"/>
          <polygon class="cls-123" points="399.23 770.79 278.49 769.88 278.49 765.77 399.23 766.68 399.23 770.79"/>
          <polygon class="cls-57" points="399.23 774.91 278.49 773.99 278.49 769.88 399.23 770.79 399.23 774.91"/>
          <polygon class="cls-104" points="399.23 779.02 278.49 778.11 278.49 773.99 399.23 774.91 399.23 779.02"/>
          <polygon class="cls-84" points="399.23 783.13 278.49 782.22 278.49 778.11 399.23 779.02 399.23 783.13"/>
          <polygon class="cls-61" points="399.23 787.25 278.49 786.34 278.49 782.22 399.23 783.13 399.23 787.25"/>
          <polygon class="cls-60" points="399.23 791.36 278.49 790.45 278.49 786.34 399.23 787.25 399.23 791.36"/>
          <polygon class="cls-75" points="399.23 795.48 278.49 794.57 278.49 790.45 399.23 791.36 399.23 795.48"/>
          <polygon class="cls-17" points="399.23 799.59 278.49 798.68 278.49 794.57 399.23 795.48 399.23 799.59"/>
          <polygon class="cls-102" points="399.23 803.71 278.49 802.79 278.49 798.68 399.23 799.59 399.23 803.71"/>
          <polygon class="cls-121" points="399.23 807.82 278.49 806.91 278.49 802.79 399.23 803.71 399.23 807.82"/>
          <polygon class="cls-52" points="399.23 811.93 278.49 811.02 278.49 806.91 399.23 807.82 399.23 811.93"/>
          <polygon class="cls-86" points="399.23 816.05 278.49 815.14 278.49 811.02 399.23 811.93 399.23 816.05"/>
          <polygon class="cls-99" points="399.23 820.16 278.49 819.25 278.49 815.14 399.23 816.05 399.23 820.16"/>
          <polygon class="cls-144" points="399.23 824.28 278.49 823.37 278.49 819.25 399.23 820.16 399.23 824.28"/>
          <polygon class="cls-29" points="399.23 828.39 278.49 827.48 278.49 823.37 399.23 824.28 399.23 828.39"/>
          <polygon class="cls-70" points="399.23 832.51 278.49 831.59 278.49 827.48 399.23 828.39 399.23 832.51"/>
          <polygon class="cls-15" points="399.23 836.62 278.49 835.71 278.49 831.59 399.23 832.51 399.23 836.62"/>
          <polygon class="cls-125" points="399.23 840.73 278.49 839.82 278.49 835.71 399.23 836.62 399.23 840.73"/>
          <polygon class="cls-26" points="399.23 844.85 278.49 843.94 278.49 839.82 399.23 840.73 399.23 844.85"/>
          <polygon class="cls-146" points="399.23 848.96 278.49 848.05 278.49 843.94 399.23 844.85 399.23 848.96"/>
          <polygon class="cls-11" points="399.23 853.08 278.49 852.17 278.49 848.05 399.23 848.96 399.23 853.08"/>
          <polygon class="cls-118" points="278.49 852.17 399.23 853.08 399.23 855.62 278.49 855.62 278.49 852.17"/>
        </g>
        <path class="cls-56" d="m707.64,855.62l-252.02-227.15-8.77-7.9c-47.14-42.5-47.14-116.47,0-158.96l10.18-9.18,21.18-19.08,45.41-40.93-.16,1.11c-.63,4.47-1.87,8.81-3.39,13.06-4.78,13.38-4.97,27.87-4.97,45.84,0,32,12.96,64.02,38.88,87.36l133.5,120.34.02.02c36.48,40.33,51.24,117.86,20.13,195.47Z"/>
        <g class="cls-155">
          <polygon class="cls-92" points="526.5 529.58 528.9 532.44 526.5 532.44 526.5 529.58"/>
          <polygon class="cls-44" points="526.5 525.92 531.96 532.44 528.9 532.44 526.5 529.58 526.5 525.92"/>
          <polygon class="cls-145" points="526.5 522.27 535.03 532.44 531.96 532.44 526.5 525.92 526.5 522.27"/>
          <polygon class="cls-45" points="526.5 518.62 538.09 532.44 535.03 532.44 526.5 522.27 526.5 518.62"/>
          <polygon class="cls-109" points="526.5 514.97 541.15 532.44 538.09 532.44 526.5 518.62 526.5 514.97"/>
          <polygon class="cls-147" points="526.5 511.32 544.22 532.44 541.15 532.44 526.5 514.97 526.5 511.32"/>
          <polygon class="cls-77" points="526.5 507.67 547.28 532.44 544.22 532.44 526.5 511.32 526.5 507.67"/>
          <polygon class="cls-8" points="526.5 504.01 550.35 532.44 547.28 532.44 526.5 507.67 526.5 504.01"/>
          <polygon class="cls-30" points="526.5 500.36 553.41 532.44 550.35 532.44 526.5 504.01 526.5 500.36"/>
          <polygon class="cls-85" points="526.5 496.71 556.47 532.44 553.41 532.44 526.5 500.36 526.5 496.71"/>
          <polygon class="cls-51" points="526.5 493.06 559.54 532.44 556.47 532.44 526.5 496.71 526.5 493.06"/>
          <polygon class="cls-32" points="526.5 489.41 562.6 532.44 559.54 532.44 526.5 493.06 526.5 489.41"/>
          <polygon class="cls-118" points="526.5 485.75 565.67 532.44 562.6 532.44 526.5 489.41 526.5 485.75"/>
          <polygon class="cls-11" points="526.5 482.1 568.73 532.44 565.67 532.44 526.5 485.75 526.5 482.1"/>
          <polygon class="cls-146" points="526.5 478.45 570.73 531.17 569.22 532.44 568.73 532.44 526.5 482.1 526.5 478.45"/>
          <polygon class="cls-26" points="526.5 474.8 572.53 529.66 570.73 531.17 526.5 478.45 526.5 474.8"/>
          <polygon class="cls-125" points="526.5 471.15 574.33 528.15 572.53 529.66 526.5 474.8 526.5 471.15"/>
          <polygon class="cls-15" points="526.5 467.5 576.13 526.64 574.33 528.15 526.5 471.15 526.5 467.5"/>
          <polygon class="cls-70" points="526.5 463.84 577.93 525.14 576.13 526.64 526.5 467.5 526.5 463.84"/>
          <polygon class="cls-29" points="526.5 460.19 579.72 523.63 577.93 525.14 526.5 463.84 526.5 460.19"/>
          <polygon class="cls-40" points="526.5 456.54 581.52 522.12 579.72 523.63 526.5 460.19 526.5 456.54"/>
          <polygon class="cls-99" points="526.5 452.89 583.32 520.61 581.52 522.12 526.5 456.54 526.5 452.89"/>
          <polygon class="cls-81" points="526.5 449.24 585.12 519.1 583.32 520.61 526.5 452.89 526.5 449.24"/>
          <polygon class="cls-76" points="526.5 445.59 586.92 517.59 585.12 519.1 526.5 449.24 526.5 445.59"/>
          <polygon class="cls-102" points="526.5 441.93 588.71 516.08 586.92 517.59 526.5 445.59 526.5 441.93"/>
          <polygon class="cls-17" points="526.5 438.28 590.51 514.57 588.71 516.08 526.5 441.93 526.5 438.28"/>
          <polygon class="cls-95" points="526.5 434.63 592.31 513.06 590.51 514.57 526.5 438.28 526.5 434.63"/>
          <polygon class="cls-80" points="526.5 430.98 594.11 511.56 592.31 513.06 526.5 434.63 526.5 430.98"/>
          <polygon class="cls-127" points="526.5 427.33 595.91 510.05 594.11 511.56 526.5 430.98 526.5 427.33"/>
          <polygon class="cls-1" points="526.5 423.68 597.71 508.54 595.91 510.05 526.5 427.33 526.5 423.68"/>
          <polygon class="cls-104" points="526.5 420.02 599.5 507.03 597.71 508.54 526.5 423.68 526.5 420.02"/>
          <polygon class="cls-129" points="526.5 416.37 601.3 505.52 599.5 507.03 526.5 420.02 526.5 416.37"/>
          <polygon class="cls-112" points="526.5 412.72 603.1 504.01 601.3 505.52 526.5 416.37 526.5 412.72"/>
          <polygon class="cls-79" points="526.5 409.07 604.9 502.5 603.1 504.01 526.5 412.72 526.5 409.07"/>
          <polygon class="cls-105" points="526.5 405.42 606.7 500.99 604.9 502.5 526.5 409.07 526.5 405.42"/>
          <polygon class="cls-143" points="526.5 401.76 608.49 499.49 606.7 500.99 526.5 405.42 526.5 401.76"/>
          <polygon class="cls-142" points="526.5 398.11 610.29 497.98 608.49 499.49 526.5 401.76 526.5 398.11"/>
          <polygon class="cls-38" points="526.5 394.46 612.09 496.47 610.29 497.98 526.5 398.11 526.5 394.46"/>
          <polygon class="cls-148" points="526.5 390.81 613.89 494.96 612.09 496.47 526.5 394.46 526.5 390.81"/>
          <polygon class="cls-137" points="526.5 387.16 615.69 493.45 613.89 494.96 526.5 390.81 526.5 387.16"/>
          <polygon class="cls-20" points="526.5 383.51 617.48 491.94 615.69 493.45 526.5 387.16 526.5 383.51"/>
          <polygon class="cls-28" points="526.5 379.85 619.28 490.43 617.48 491.94 526.5 383.51 526.5 379.85"/>
          <polygon class="cls-131" points="526.5 376.2 621.08 488.92 619.28 490.43 526.5 379.85 526.5 376.2"/>
          <polygon class="cls-16" points="526.5 372.61 526.53 372.59 622.88 487.41 621.08 488.92 526.5 376.2 526.5 372.61"/>
          <rect class="cls-150" x="574.43" y="354.3" width="2.35" height="149.9" transform="translate(-141.25 470.41) rotate(-40)"/>
          <rect class="cls-134" x="576.23" y="352.79" width="2.35" height="149.9" transform="translate(-139.86 471.22) rotate(-40)"/>
          <rect class="cls-120" x="578.02" y="351.28" width="2.35" height="149.9" transform="translate(-138.47 472.02) rotate(-40)"/>
          <rect class="cls-24" x="579.82" y="349.77" width="2.35" height="149.9" transform="translate(-137.08 472.82) rotate(-40)"/>
          <rect class="cls-47" x="581.62" y="348.26" width="2.35" height="149.9" transform="translate(-135.69 473.63) rotate(-40)"/>
          <rect class="cls-3" x="583.42" y="346.75" width="2.35" height="149.9" transform="translate(-134.3 474.43) rotate(-40)"/>
          <rect class="cls-140" x="585.22" y="345.24" width="2.35" height="149.9" transform="translate(-132.91 475.23) rotate(-40)"/>
          <rect class="cls-50" x="587.01" y="343.73" width="2.35" height="149.9" transform="translate(-131.52 476.03) rotate(-40)"/>
          <rect class="cls-116" x="588.81" y="342.23" width="2.35" height="149.9" transform="translate(-130.12 476.84) rotate(-40)"/>
          <rect class="cls-18" x="590.61" y="340.72" width="2.35" height="149.9" transform="translate(-128.73 477.64) rotate(-40)"/>
          <rect class="cls-64" x="592.41" y="339.21" width="2.35" height="149.9" transform="translate(-127.34 478.44) rotate(-40)"/>
          <rect class="cls-66" x="594.21" y="337.7" width="2.35" height="149.9" transform="translate(-125.95 479.25) rotate(-40)"/>
          <rect class="cls-82" x="596.01" y="336.19" width="2.35" height="149.9" transform="translate(-124.56 480.05) rotate(-40)"/>
          <rect class="cls-128" x="597.8" y="334.68" width="2.35" height="149.9" transform="translate(-123.17 480.85) rotate(-40)"/>
          <rect class="cls-130" x="599.6" y="333.17" width="2.35" height="149.9" transform="translate(-121.78 481.65) rotate(-40)"/>
          <rect class="cls-54" x="601.4" y="331.66" width="2.35" height="149.9" transform="translate(-120.39 482.46) rotate(-40)"/>
          <rect class="cls-43" x="603.2" y="330.16" width="2.35" height="149.9" transform="translate(-119 483.26) rotate(-40)"/>
          <rect class="cls-62" x="605" y="328.65" width="2.35" height="149.9" transform="translate(-117.61 484.06) rotate(-40)"/>
          <rect class="cls-133" x="606.79" y="327.14" width="2.35" height="149.9" transform="translate(-116.22 484.86) rotate(-40)"/>
          <rect class="cls-63" x="608.59" y="325.63" width="2.35" height="149.9" transform="translate(-114.83 485.67) rotate(-40)"/>
          <rect class="cls-10" x="610.39" y="324.12" width="2.35" height="149.9" transform="translate(-113.44 486.47) rotate(-40)"/>
          <rect class="cls-83" x="612.19" y="322.61" width="2.35" height="149.9" transform="translate(-112.05 487.27) rotate(-40)"/>
          <rect class="cls-7" x="613.99" y="321.1" width="2.35" height="149.9" transform="translate(-110.66 488.08) rotate(-40)"/>
          <rect class="cls-113" x="615.78" y="319.59" width="2.35" height="149.9" transform="translate(-109.27 488.88) rotate(-40)"/>
          <rect class="cls-74" x="617.58" y="318.08" width="2.35" height="149.9" transform="translate(-107.88 489.68) rotate(-40)"/>
          <rect class="cls-58" x="619.38" y="316.58" width="2.35" height="149.9" transform="translate(-106.49 490.48) rotate(-40)"/>
          <rect class="cls-151" x="621.18" y="315.07" width="2.35" height="149.9" transform="translate(-105.1 491.29) rotate(-40)"/>
          <rect class="cls-14" x="622.98" y="313.56" width="2.35" height="149.9" transform="translate(-103.7 492.09) rotate(-40)"/>
          <rect class="cls-124" x="624.78" y="312.05" width="2.35" height="149.9" transform="translate(-102.31 492.89) rotate(-40)"/>
          <rect class="cls-53" x="626.57" y="310.54" width="2.35" height="149.9" transform="translate(-100.92 493.7) rotate(-40)"/>
          <rect class="cls-41" x="628.37" y="309.03" width="2.35" height="149.9" transform="translate(-99.53 494.5) rotate(-40)"/>
          <rect class="cls-87" x="630.17" y="307.52" width="2.35" height="149.9" transform="translate(-98.14 495.3) rotate(-40)"/>
          <rect class="cls-27" x="631.97" y="306.01" width="2.35" height="149.9" transform="translate(-96.75 496.1) rotate(-40)"/>
          <rect class="cls-152" x="633.77" y="304.51" width="2.35" height="149.9" transform="translate(-95.36 496.91) rotate(-40)"/>
          <rect class="cls-101" x="635.56" y="303" width="2.35" height="149.9" transform="translate(-93.97 497.71) rotate(-40)"/>
          <rect class="cls-108" x="637.36" y="301.49" width="2.35" height="149.9" transform="translate(-92.58 498.51) rotate(-40)"/>
          <rect class="cls-96" x="639.16" y="299.98" width="2.35" height="149.9" transform="translate(-91.19 499.32) rotate(-40)"/>
          <rect class="cls-55" x="640.96" y="298.47" width="2.35" height="149.9" transform="translate(-89.8 500.12) rotate(-40)"/>
          <rect class="cls-114" x="642.76" y="296.96" width="2.35" height="149.9" transform="translate(-88.41 500.92) rotate(-40)"/>
          <rect class="cls-97" x="644.56" y="295.45" width="2.35" height="149.9" transform="translate(-87.02 501.72) rotate(-40)"/>
          <rect class="cls-65" x="646.35" y="293.94" width="2.35" height="149.9" transform="translate(-85.63 502.53) rotate(-40)"/>
          <rect class="cls-49" x="648.15" y="292.44" width="2.35" height="149.9" transform="translate(-84.24 503.33) rotate(-40)"/>
          <rect class="cls-13" x="649.95" y="290.93" width="2.35" height="149.9" transform="translate(-82.85 504.13) rotate(-40)"/>
          <rect class="cls-100" x="651.75" y="289.42" width="2.35" height="149.9" transform="translate(-81.46 504.94) rotate(-40)"/>
          <rect class="cls-98" x="653.55" y="287.91" width="2.35" height="149.9" transform="translate(-80.07 505.74) rotate(-40)"/>
          <rect class="cls-111" x="655.34" y="286.4" width="2.35" height="149.9" transform="translate(-78.67 506.54) rotate(-40)"/>
          <rect class="cls-42" x="657.14" y="284.89" width="2.35" height="149.9" transform="translate(-77.28 507.34) rotate(-40)"/>
          <rect class="cls-31" x="658.94" y="283.38" width="2.35" height="149.9" transform="translate(-75.89 508.15) rotate(-40)"/>
          <rect class="cls-119" x="660.74" y="281.87" width="2.35" height="149.9" transform="translate(-74.5 508.95) rotate(-40)"/>
          <rect class="cls-19" x="662.54" y="280.36" width="2.35" height="149.9" transform="translate(-73.11 509.75) rotate(-40)"/>
          <rect class="cls-34" x="664.33" y="278.86" width="2.35" height="149.9" transform="translate(-71.72 510.56) rotate(-40)"/>
          <rect class="cls-149" x="666.13" y="277.35" width="2.35" height="149.9" transform="translate(-70.33 511.36) rotate(-40)"/>
          <rect class="cls-21" x="667.93" y="275.84" width="2.35" height="149.9" transform="translate(-68.94 512.16) rotate(-40)"/>
          <rect class="cls-71" x="669.73" y="274.33" width="2.35" height="149.9" transform="translate(-67.55 512.96) rotate(-40)"/>
          <rect class="cls-90" x="671.53" y="272.82" width="2.35" height="149.9" transform="translate(-66.16 513.77) rotate(-40)"/>
          <rect class="cls-88" x="673.33" y="271.31" width="2.35" height="149.9" transform="translate(-64.77 514.57) rotate(-40)"/>
          <rect class="cls-107" x="675.12" y="269.8" width="2.35" height="149.9" transform="translate(-63.38 515.37) rotate(-40)"/>
          <rect class="cls-5" x="676.92" y="268.29" width="2.35" height="149.9" transform="translate(-61.99 516.18) rotate(-40)"/>
          <rect class="cls-25" x="678.72" y="266.79" width="2.35" height="149.9" transform="translate(-60.6 516.98) rotate(-40)"/>
          <rect class="cls-93" x="680.52" y="265.28" width="2.35" height="149.9" transform="translate(-59.21 517.78) rotate(-40)"/>
          <rect class="cls-103" x="682.32" y="263.77" width="2.35" height="149.9" transform="translate(-57.82 518.58) rotate(-40)"/>
          <rect class="cls-110" x="684.11" y="262.26" width="2.35" height="149.9" transform="translate(-56.43 519.39) rotate(-40)"/>
          <rect class="cls-56" x="685.91" y="260.75" width="2.35" height="149.9" transform="translate(-55.04 520.19) rotate(-40)"/>
          <polygon class="cls-56" points="639.81 277.53 700.56 226.56 738.73 226.56 738.73 390.21 736.16 392.36 639.81 277.53"/>
        </g>
      </g>
      <g id="TXT">
        <g>
          <path class="cls-154" d="m852.92,237.11h15.97v87.02c15.13-18.97,47.23-60.88,67.57-87.02h18.86l-55.45,70.31,57.77,100.63h-18.92l-49.89-88.11-19.93,23.87v64.23h-15.99v-170.94Z"/>
          <path class="cls-154" d="m976.03,282.05h15.69v126h-15.69v-126Zm.03-53.4h15.69v25.42h-15.69v-25.42Z"/>
          <path class="cls-154" d="m1025.02,321.15c0-25.95-.21-33.58-.33-39.1h15.31c.3,2.85.69,10.54.62,18.59,4.65-11.02,14.31-20.82,32.86-20.82s35.03,10.46,35.03,41.43v86.8h-15.89v-84.21c0-17.31-6.17-29.78-22.76-29.78-20.7,0-29.02,14.7-29.02,42.44v71.56h-15.82v-86.9Z"/>
          <path class="cls-154" d="m1224.07,228.66v147.61c0,11.42.02,24.15.33,31.78h-15.31c-.3-3.27-.62-11.85-.62-18.52-4.9,12.9-13.82,20.78-32.78,20.78-28.33,0-41.25-23.86-41.25-66.11,0-39.09,16.47-64.35,44.96-64.35,18.3,0,25.86,7.89,28.97,14.76v-65.95h15.69Zm-73.35,115.33c0,36.49,10.98,52.13,28.68,52.13,23.47,0,29.31-19.51,29.31-53.34,0-38.39-7.75-48.81-27.88-48.81-18,0-30.11,15.69-30.11,50.02Z"/>
        </g>
        <g>
          <path class="cls-154" d="m959.81,636.62h-12.89c-.65-4.69-1.19-10.74-1.32-21.72-6.4,14.4-17.04,24.16-39.89,24.16-39.82,0-52.79-39.46-52.79-87.66,0-55.08,19.91-88.1,58.42-88.1s46.58,29.73,48.71,46.8h-16.1c-2.24-10.84-7.39-32.57-33.1-32.57-29.23,0-41.04,30.08-41.04,73.61s9.65,73.73,38.27,73.73,35.89-23.28,35.89-60.52v-5.69h-36.64v-14.46h52.48v92.42Z"/>
          <path class="cls-154" d="m991.83,553.55c0-19.91-.07-35.05-.33-42.93h15.28c.28,4.42.5,11.13.5,24.17,5.82-16.02,19.01-25.94,36.1-26.2v16.98c-24.33,1.17-35.86,18.01-35.86,42.21v68.84h-15.69v-83.07Z"/>
          <path class="cls-154" d="m1146.03,571.84c0,41.41-14.76,67.01-46.44,67.01s-45.97-25.42-45.97-66.59,17.13-63.84,46.86-63.84,45.55,22.92,45.55,63.42Zm-76.19.51c0,34.11,10.65,52.73,30.17,52.73s29.75-18.66,29.75-53.09c0-31.67-10.04-49.78-29.99-49.78s-29.94,16.47-29.94,50.13Z"/>
          <path class="cls-154" d="m1254.09,602.37c0,15.12.08,28.29.33,34.25h-15.01c-.62-3.54-.87-9.53-.92-18.92-4.52,13.06-16.25,21.17-32.86,21.17-15.17,0-33.82-6-33.82-39.45v-88.79h15.8v85.13c0,17.15,5.13,29.07,22.39,29.07,16.21,0,28.13-10.56,28.13-39.9v-74.31h15.95v91.75Z"/>
          <path class="cls-154" d="m1302.4,621.95v62.47h-15.67v-136.77c0-17.3.02-29.22-.32-37.03h15.31c.3,2.94.59,12.17.6,19.04,5.27-12.47,15.72-21.24,33.72-21.24,25.24,0,40.15,21.73,40.15,63.35,0,43.73-17.87,67.07-44.17,67.07-16.79,0-25.37-7.79-29.63-16.89Zm57.59-49.48c0-31.82-9.32-49.93-28.32-49.93-23.15,0-29.92,19.89-29.92,51.05s3.89,51.16,28.53,51.16c19.13,0,29.71-20.16,29.71-52.28Z"/>
        </g>
        <g>
          <path class="cls-154" d="m869.14,805.99c2.08,20.37,13.7,33.62,33.74,33.62s31.2-10.29,31.2-31.69c0-19.33-7.86-28.81-34.18-39.75-28.99-11.94-41.52-23.5-41.52-48.05s15.94-41.97,44.51-41.97c32.89,0,43.81,22.59,44.75,43.3h-16c-1.47-11.55-6.86-29.51-29.43-29.51-18.89,0-27.39,11.65-27.39,26.75,0,17.31,8.21,25.18,32.21,35.01,33.74,13.78,43.78,28.62,43.78,52.76,0,27.57-16.58,46.9-48.45,46.9-33.56,0-47.64-20.8-49.43-47.37h16.22Z"/>
          <path class="cls-154" d="m1054.56,828.56c0,8.5.76,18.41,1.32,22.72h-14.48c-.73-3.44-1.42-10.37-1.43-16.94-4.64,11.74-15.52,19.19-33.09,19.19-26.35,0-35.05-19.58-35.05-36.83,0-20.82,13.73-39.88,51.13-39.88,7.12,0,11.55,0,16.17.3v-16.14c0-11.19-2.57-24.75-22.55-24.75s-23.13,12.71-24.43,23.46h-15.36c1.01-19.05,10.83-36.61,40.32-36.61,24.27,0,37.45,11.4,37.45,36.07v69.41Zm-15.05-38.7c-3.83-.33-8.96-.46-16-.46-26.98,0-35.74,12.17-35.74,26.36,0,12.95,7.25,24.12,22.36,24.12,21.7,0,29.38-14.95,29.38-44.05v-5.96Z"/>
          <path class="cls-154" d="m1087.93,768.21c0-19.91-.07-35.05-.33-42.93h15.28c.28,4.42.5,11.13.5,24.17,5.82-16.02,19.01-25.94,36.1-26.2v16.98c-24.33,1.17-35.86,18.01-35.86,42.21v68.84h-15.69v-83.07Z"/>
          <path class="cls-154" d="m1159.15,851.28v-179.39h15.69v179.39h-15.69Z"/>
        </g>
      </g>
    </g>
  </g>
</svg>